<?xml version="1.0" encoding="iso-8859-1"?>
<!-- Generator: Adobe Illustrator 19.0.0, SVG Export Plug-In . SVG Version: 6.00 Build 0)  -->
<svg xmlns="http://www.w3.org/2000/svg" xmlns:xlink="http://www.w3.org/1999/xlink" version="1.1" id="Layer_1" x="0px" y="0px" viewBox="0 0 512 512" style="enable-background:new 0 0 512 512;" xml:space="preserve" width="512px" height="512px">
<g>
	<g>
		<path d="M139.109,240.322h49.153v0c4.004-37.685,21.367-73.761,35.641-97.918C179.291,155.077,145.362,193.387,139.109,240.322z" fill="#933EC5"/>
	</g>
</g>
<g>
	<g>
		<path d="M219.809,271.667c4.623,35.433,23.431,70.138,36.267,90.391c12.766-20.29,31.48-55.04,36.091-90.391H219.809z" fill="#933EC5"/>
	</g>
</g>
<g>
	<g>
		<path d="M288.234,142.373c14.205,24.153,31.499,60.247,35.486,97.95h49.425C366.887,193.346,332.903,155.013,288.234,142.373z" fill="#933EC5"/>
	</g>
</g>
<g>
	<g>
		<path d="M256.107,149.932c-12.831,20.285-31.653,55.04-36.292,90.391h72.358C287.576,204.893,268.878,170.193,256.107,149.932z" fill="#933EC5"/>
	</g>
</g>
<g>
	<g>
		<path d="M323.72,271.667c-3.987,37.703-21.281,73.797-35.485,97.95c44.669-12.64,78.651-50.974,84.911-97.95H323.72z" fill="#933EC5"/>
	</g>
</g>
<g>
	<g>
		<path d="M511.956,308.449L512,206.865l-65.97-7.238c-3.585-12.1-8.324-23.822-14.165-35.036l42.199-52.531L402.25,40.215    l-51.77,41.551c-11.114-6.041-22.75-10.986-34.782-14.783L308.38,0.022H206.795l-7.21,65.973    c-11.987,3.556-23.605,8.248-34.724,14.021l-52.475-42.267L40.447,109.47l41.484,51.824    c-6.058,11.108-11.019,22.739-14.831,34.762l-66.969,7.231L0,304.872l65.962,7.295c3.573,12.101,8.302,23.827,14.135,35.048    l-42.244,52.493l71.752,71.908l51.807-41.507c11.11,6.051,22.743,11.008,34.768,14.814l7.26,66.966l101.583,0.089l7.265-65.966    c12.1-3.577,23.824-8.312,35.042-14.15l52.513,42.221l71.877-71.784l-41.529-51.788c6.046-11.112,10.996-22.746,14.798-34.776    L511.956,308.449z M256.126,405.4c-82.381,0-149.403-67.022-149.403-149.404s67.022-149.404,149.403-149.404    c82.382,0,149.404,67.022,149.404,149.404S338.508,405.4,256.126,405.4z" fill="#933EC5"/>
	</g>
</g>
<g>
	<g>
		<path d="M188.262,271.667h-49.153c6.253,46.936,40.182,85.245,84.794,97.918C209.628,345.428,192.266,309.351,188.262,271.667z" fill="#933EC5"/>
	</g>
</g>
<g>
</g>
<g>
</g>
<g>
</g>
<g>
</g>
<g>
</g>
<g>
</g>
<g>
</g>
<g>
</g>
<g>
</g>
<g>
</g>
<g>
</g>
<g>
</g>
<g>
</g>
<g>
</g>
<g>
</g>
</svg>
